#format: frame checksums
#version: 1
#hash: MD5
#tb 0: 1/25
#stream#, dts,        pts, duration,     size, hash
0,          0,          0,        1,   180000, 9fc6302026cf2a2dd310646b83c5dfa1
0,          1,          1,        1,   180000, b1b2646c8df579ddf8676bc2488411a5
0,          2,          2,        1,   180000, 5aca8cdf4914a96577cffbbc18508043
0,          3,          3,        1,   180000, d5bec8091a32a6669e76b8ab8f82db1f
0,          4,          4,        1,   180000, d8e8543d19d0d71959321ffcebf820ad
0,          5,          5,        1,   180000, 90520f273b47e423ae8f519e17b9994b
0,          6,          6,        1,   180000, 3f6b9fc1fc30804b98a16264b944ff55
0,          7,          7,        1,   180000, 3cd3b36f6ee370c27ef86c6cd9fc7c1d
0,          8,          8,        1,   180000, 44f44f2ac0c9160d3e8ae184c7e4caa9
0,          9,          9,        1,   180000, c7c96bf89dd79249755b9ae0af6a259e
0,         10,         10,        1,   180000, 8ba3f9677fb07be37b0964cf847cb538
0,         11,         11,        1,   180000, 59614cce923cf836395b7628dddaba06
0,         12,         12,        1,   180000, 6497b597654c9c90e290feec2f8b11c8
0,         13,         13,        1,   180000, df2774f8219a29629bbda3c368ca3046
0,         14,         14,        1,   180000, 818bed7e0e12e11bf510939e0a895421
0,         15,         15,        1,   180000, 591377e15da046fe83cadede3c13ec0d
0,         16,         16,        1,   180000, 6dcc7dc9287054307cd67db723f4b806
0,         17,         17,        1,   180000, 5158145404ee2eda2cad930127bc9480
0,         18,         18,        1,   180000, 9423c3bc58b00299c762d547a98d22b1
0,         19,         19,        1,   180000, 960dcbf47536653087afc917a99f97b4
0,         20,         20,        1,   180000, 05f7ba88fd8a73416cfab0427db30c5f
0,         21,         21,        1,   180000, 51809dcb798fc5cc45066faf56f6b533
0,         22,         22,        1,   180000, b637cc799280b57a770d8c3417f5a9f3
0,         23,         23,        1,   180000, 900632153e8a06208550d62c7f327e06
0,         24,         24,        1,   180000, fcbce1d8ee2a284e7a8a2923d878ca1a
0,         25,         25,        1,   180000, ac64fdfeef02c97bb7ee3bd8d42cda4a
0,         26,         26,        1,   180000, 528b693654f55eac5793222591fc32ca
0,         27,         27,        1,   180000, d2d23bf508c6ab797cfa9093824e7271
0,         28,         28,        1,   180000, 249d71065ba6170ee82fffeb84489a57
0,         29,         29,        1,   180000, ab8a7ac5bdaeb22a4cc5834ff4dbc838
0,         30,         30,        1,   180000, bc9a0da67f7dd812e4dc29adab36c79c
0,         31,         31,        1,   180000, 4fd1c8d536616622d2acf5313ffad839
0,         32,         32,        1,   180000, 32241cbbf06fc238ac8f852db8004788
0,         33,         33,        1,   180000, 99cdd2026fae42d0f5de666596073c23
0,         34,         34,        1,   180000, 9fc705da6bdf42c7f41b858185851816
0,         35,         35,        1,   180000, 8acbd773806f2933aaadb85b4a693390
0,         36,         36,        1,   180000, 781045116f6e6576cd53453fada887d4
0,         37,         37,        1,   180000, 81a53875f718c706de28881c340e79a1
0,         38,         38,        1,   180000, d183354aa17b8d65d3583264ae81bd54
0,         39,         39,        1,   180000, 42dc484e20e9779405b205d8aa879373
0,         40,         40,        1,   180000, d2034292cfb3a3a61b815a6a434d8f01
0,         41,         41,        1,   180000, 625bde305548017781ed1f5bc5cb8cc4
0,         42,         42,        1,   180000, 260544b15d99fff9e5782e30a165e5bf
0,         43,         43,        1,   180000, 7ba5b56979a3ec49e407f7fd51912dc4
0,         44,         44,        1,   180000, 78e40b052b8773631a014692c667590d
0,         45,         45,        1,   180000, a79266a1d52b21594467f1efde654e3d
0,         46,         46,        1,   180000, 33f00d3f9dd037ab9cf4dcf8a68ab013
0,         47,         47,        1,   180000, 91d7f5d53a0d5f37c2cf485e73db66bb
0,         48,         48,        1,   180000, 74463929bc9e7e56bd8b2f9cc194e0e9
0,         49,         49,        1,   180000, 14c4f3cead9eda56e96dbaedce61e4c8
0,         50,         50,        1,   180000, ba12d7a55633679bb4a9767e1c4a4c76
0,         51,         51,        1,   180000, ad39deaa1c6a3c3dbc9a5448b9449d55
0,         52,         52,        1,   180000, 1a59266fd8b69ecd8c0ba6894a902d9f
0,         53,         53,        1,   180000, f0229d7137bfac76273261df2eaacbaf
0,         54,         54,        1,   180000, 0655f3778ec7c64aa44b2cb7e9f4bce9
0,         55,         55,        1,   180000, e5d0cf9f7a9c751afe09cac6f415f9a3
0,         56,         56,        1,   180000, a103674a6d42da7bb026ddc6c21907f5
0,         57,         57,        1,   180000, 86fd09abac435c94aacdc4e24bae5fa4
0,         58,         58,        1,   180000, cba4362f9905f12ea415114011f634e3
0,         59,         59,        1,   180000, adc6dc728070c97414d5681606f9509a
0,         60,         60,        1,   180000, ab105d61727de7f3234c1b4618684fff
0,         61,         61,        1,   180000, e1bb39c9fda419ce27459b3679bab6f5
0,         62,         62,        1,   180000, 6b1b2e9e4dbf0512f5c082b950f5d1ea
0,         63,         63,        1,   180000, 58fde3d07e884461f9e535cc6af67d61
0,         64,         64,        1,   180000, d696821896825012fdef20361ea43376
0,         65,         65,        1,   180000, b3a15b5a8efb394dbec89ef722d02937
0,         66,         66,        1,   180000, bbf7cc7fef6b4b37abf12dea62c190ec
0,         67,         67,        1,   180000, 19ad669ab8639d4eebd3f7217270b8d3
0,         68,         68,        1,   180000, 1c8d1f98393cb9d0d38d43a296c47d17
0,         69,         69,        1,   180000, 6feac439b0e0172220c87abda22c726b
0,         70,         70,        1,   180000, 9c8608262d6a6012f9dd49001e8a5c2d
0,         71,         71,        1,   180000, e79b848e3d0e323d6425a76c35a6d6f1
0,         72,         72,        1,   180000, f2553bbaaae2e1b6898202401a085cf0
0,         73,         73,        1,   180000, 34903147296c1d9f5c6c322a05ad1bbe
0,         74,         74,        1,   180000, 6ed277498b9cdee9591b98bf9c1d6ba2
0,         75,         75,        1,   180000, 5d94ad871ad94c36a7b6e3cf72058c4e
0,         76,         76,        1,   180000, e380d7309b5f5c135c47773709575061
0,         77,         77,        1,   180000, 554aa8facbaacc17eab7d2c36e2516c8
0,         78,         78,        1,   180000, e5d7a81ec4c3244f548ad8d9225672fe
0,         79,         79,        1,   180000, 201b30fb23e71c5472b884153592846d
0,         80,         80,        1,   180000, 329bcc411f576fa4fbc7cd863e2ae459
0,         81,         81,        1,   180000, 0b7ace1a4821d560c61053e3980b9b21
0,         82,         82,        1,   180000, ebb2567c17350e67415e1e2259b0da8b
0,         83,         83,        1,   180000, c10b8774392c43585c69434f7d5bd94e
0,         84,         84,        1,   180000, 9f5862196d2bebc4ad09c214593b223e
0,         85,         85,        1,   180000, 300dc16fbb0f2486100ed167f1d90627
0,         86,         86,        1,   180000, 0bec9c42aa215b0c5e73a5faf8f5c925
0,         87,         87,        1,   180000, 779d67d3f58b5dd8094b414a830b94fc
0,         88,         88,        1,   180000, a9414e841f60cd04e414a9cad3126f22
0,         89,         89,        1,   180000, 6b4bf1026523dd19e77705a56c9395bf
0,         90,         90,        1,   180000, 3e7f0e8db2738e287a5c1dff33bdc90b
0,         91,         91,        1,   180000, 5d8bf7db24fa21a21beaba6fb6ac3c95
0,         92,         92,        1,   180000, 90f594797c97a10457bc1617d8e069e0
0,         93,         93,        1,   180000, 9caa885630cd088d51a3601afa090f45
0,         94,         94,        1,   180000, c189ea0726442a93a30466930b498aba
0,         95,         95,        1,   180000, 117422414360e8bb3b617e4118bb5699
0,         96,         96,        1,   180000, 4ad2ffd81a6adeb21affce414fea992e
0,         97,         97,        1,   180000, 4b1f12d5a755070858d5a8218cb42ee5
0,         98,         98,        1,   180000, 77bee2dff4ebafdea925228a870aa270
0,         99,         99,        1,   180000, f9e4ed9fb47611084dfe1998b3a17fe2
0,        100,        100,        1,   180000, e532cc6487cc51a7ea99d7a909f0d9d7
0,        101,        101,        1,   180000, 79abcb269e5400f7676c869db06201f5
0,        102,        102,        1,   180000, 5ea8363a325b8c73d8f7689234b534cb
0,        103,        103,        1,   180000, 8b92e05ce85cb879779256efb60ef56d
0,        104,        104,        1,   180000, 7319585dceaaa1dc339cba253ca7f7e1
0,        105,        105,        1,   180000, a589ddfebfc5106268996dc641b63ed5
0,        106,        106,        1,   180000, f1ea16230a29ab7a0c76b62119aec1f6
0,        107,        107,        1,   180000, bf783508ccdc7ded175c240803c8ba42
0,        108,        108,        1,   180000, 8432ceb650366458ea568d5d38f34339
0,        109,        109,        1,   180000, e83eec0ba33fb28c2652985e3d5a5aa7
0,        110,        110,        1,   180000, 866481b59ea1f6654c617b598218ac72
0,        111,        111,        1,   180000, d1d5d72d11b430986d62a4976d3f440b
0,        112,        112,        1,   180000, d5bbb30019545ef298f5aedeb1e50420
0,        113,        113,        1,   180000, 9b519b5c800734d940d5b6e1c519d2f3
0,        114,        114,        1,   180000, 46854ea69f9de67f74d216fb46ca0d3f
0,        115,        115,        1,   180000, 43c3e53ee16e172c635bc2215e1dbe7a
0,        116,        116,        1,   180000, 76ffdd6b5630a716cea844e34f357726
0,        117,        117,        1,   180000, 9a65251f4152bee7529d22017d75d30b
0,        118,        118,        1,   180000, 350ff9995c2287a5d6af83adaaa94692
0,        119,        119,        1,   180000, 18c87ab4e73b5c4013e722a82015144a
0,        120,        120,        1,   180000, 45bfbaac738447afda91f1aa3b877114
0,        121,        121,        1,   180000, 727d7b1d10b96f60593b0363a1da04a3
0,        122,        122,        1,   180000, 77c7fff4a368cf923d442a70bef5d2b6
0,        123,        123,        1,   180000, e021419b7c840409c8543d127c55ceef
0,        124,        124,        1,   180000, 5af4ffe289b7466c7b2ba6696e24b891
0,        125,        125,        1,   180000, 7869c8c388f762054726a4fded34ef76
0,        126,        126,        1,   180000, 9de7b2074944cdb6c1b28490b89b4d1b
0,        127,        127,        1,   180000, 1c65f0842787445c5a4291db5ec95306
0,        128,        128,        1,   180000, 0836fc11e0537c64b89ca03c98e91a88
0,        129,        129,        1,   180000, 6c0633861801dfff2464211987e199f4
0,        130,        130,        1,   180000, 804f395636e19519f8b2c57572e2f5b9
0,        131,        131,        1,   180000, 26119987a7cfce7146596b5119627cec
0,        132,        132,        1,   180000, bb064421d53f2aa472e189ceb1d1fb8f
0,        133,        133,        1,   180000, 8f4fe12cf1ada41bd75a8ab4e6c29daa
0,        134,        134,        1,   180000, 320803434ed72884005218c336ec616c
0,        135,        135,        1,   180000, 636d47f0af76b7caa244436b61d066ea
0,        136,        136,        1,   180000, d72bcab89102d278bdc34cc9d6d70d8d
0,        137,        137,        1,   180000, 8b97a2fd174e873c5d2f815c996307e1
0,        138,        138,        1,   180000, 780a5d69dab54077770f038b83da3786
0,        139,        139,        1,   180000, 49238301baf70b59bc7155c79b77812f
0,        140,        140,        1,   180000, ba9c941092f9c000935f5d0077943155
0,        141,        141,        1,   180000, 2c91278ed0bd73a83fafa5ab373025ae
0,        142,        142,        1,   180000, e8c1ce1347e00d9a9267ec2ee2e55f88
0,        143,        143,        1,   180000, a9d055533ee4c85f1a47dbc0e4900ee5
0,        144,        144,        1,   180000, 37011528ef6d82c233ab81d6fa4b25c9
0,        145,        145,        1,   180000, bec33254e1b75e5bcf9add1b016c6409
0,        146,        146,        1,   180000, 686469d5f908c4b13f7da93accdbfe08
0,        147,        147,        1,   180000, 175bc1a2a4b93c51f26cec24919a5e71
0,        148,        148,        1,   180000, 7b42cf6186457f0796a5edf418c97ff1
0,        149,        149,        1,   180000, f6dc114720002a975e5dd4c96d64eec8
